<?xml version="1.0" encoding="UTF-8"?> <svg xmlns="http://www.w3.org/2000/svg" width="195" height="41" viewBox="0 0 195 41" fill="none"> <path fill-rule="evenodd" clip-rule="evenodd" d="M54.5087 2.13412C51.2783 0.915278 48.0769 2.05114 46.3147 4.91503C45.8458 4.45962 45.2856 4.03674 44.6181 3.66299C35.645 -1.36043 24.2388 7.37994 24.2388 7.37994L23.7685 5.49922L23.7286 5.47134C25.603 3.93517 26.1773 4.49016 27.7415 3.42998C28.8287 2.69309 28.2557 0.347678 28.2557 0.347678C26.2381 0.3032 24.7644 1.75506 22.9023 2.57625C22.2225 2.87565 22.0576 2.90022 21.7259 3.54881L21.4867 4.0155C20.809 3.80041 19.3022 3.59328 16.6468 4.50941C16.5508 4.5426 16.4643 4.57314 16.3778 4.60301C16.3893 4.4417 16.4008 4.28038 16.4123 4.11906C16.4414 3.71477 16.5143 3.65768 16.1941 3.40807C13.6231 1.40056 12.9596 0.140554 9.92708 1.66544L7.82503 2.7223C7.82503 2.7223 7.32908 4.71653 9.58046 4.37398C10.6122 4.21731 10.4825 4.08188 11.4474 4.23125C13.4204 4.53663 13.2508 4.51007 13.7656 4.58974C14.344 4.67869 13.64 6.58264 14.667 6.83358C14.5515 7.72713 14.1548 9.15775 12.7596 11.6047C8.8818 18.4027 5.32838 16.6547 5.32838 16.6547C5.32838 16.6547 3.83985 15.5321 2.74591 15.5381C-2.05009 15.5673 0.377641 19.4515 2.93173 19.5478C4.52364 19.6062 5.88717 18.3854 5.88717 18.3854C8.21017 18.2938 18.4448 16.0612 19.0096 20.2986C19.438 23.521 20.7225 30.0819 20.6414 32.2136L18.2326 31.6831L19.5549 32.7513L18.1069 33.5632L20.3319 33.3893L21.4826 34.4302C21.7164 32.8144 21.5401 32.7095 21.332 32.43C21.8536 28.9188 20.5678 24.9795 20.8975 21.3104C21.7286 12.0747 25.0401 32.1485 24.8165 36.143L22.3495 35.5999L23.6719 36.6674L22.2245 37.48L24.4482 37.3054L25.5989 38.3463C25.5989 38.3463 26.0003 36.8606 25.5421 36.4988C25.6928 36.2857 25.7543 35.7918 25.7759 35.1525C25.8638 32.5535 25.2063 27.2406 26.4435 21.9397C28.0152 15.2082 37.2295 17.7016 37.7518 20.4122C38.0714 22.0698 37.5119 33.5147 37.0146 33.4391L34.3835 32.8595L35.7058 33.927L34.2585 34.7389L36.4828 34.5643L37.6335 35.6059C37.6335 35.6059 38.2153 34.4275 37.695 33.8453C39.143 25.7031 38.3247 26.8449 39.6207 21.6808C40.6754 17.4799 42.9207 16.0154 41.1491 35.963L38.8166 35.4492L40.1383 36.5167L38.691 37.3286L40.916 37.154L42.066 38.1956C42.066 38.1956 42.5397 36.5678 41.7322 36.1264L45.6998 17.8045C45.6998 17.8045 46.9451 15.2566 47.8735 12.9351C48.5796 11.1706 48.8512 8.14603 47.0262 5.72228C49.2938 3.30451 51.2276 2.79997 54.5087 2.13412Z" fill="#05BB75"></path> <path fill-rule="evenodd" clip-rule="evenodd" d="M2.37739 16.4558C1.95103 16.4558 1.60508 16.339 1.60508 16.1963C1.60508 16.0522 1.95103 15.936 2.37739 15.936C2.80374 15.936 3.14969 16.0522 3.14969 16.1963C3.14969 16.339 2.80374 16.4558 2.37739 16.4558Z" fill="#FEFEFE"></path> <path fill-rule="evenodd" clip-rule="evenodd" d="M19.4097 14.5748C20.0043 14.7872 20.1536 15.2951 19.7043 15.9629C19.1455 16.7921 17.8273 17.6206 16.5016 18.0348C16.2164 17.9611 15.9144 17.9027 15.5995 17.8562C16.8232 17.5741 18.9036 16.7854 19.5158 15.8773C19.9131 15.2871 19.8422 14.8217 19.4097 14.5748ZM19.0199 10.8014C18.8043 10.5837 18.6036 10.3712 18.4996 10.1395C18.1793 9.4312 18.0638 8.95587 18.3739 8.23625C18.5273 7.87909 18.959 7.64807 19.5455 7.73836C20.6557 7.9103 21.0739 8.04639 21.3151 9.25594C21.5402 10.3872 19.8036 11.5927 19.0199 10.8014ZM16.6813 10.5518C16.6813 10.5518 16.2198 10.591 15.7522 9.96029C15.284 9.32963 15.3813 8.92069 15.5448 8.61133C15.7076 8.30064 16.0016 7.72773 16.7678 7.88175C18.2361 8.17916 18.0205 10.3712 16.6813 10.5518Z" fill="#FEFEFE"></path> <path fill-rule="evenodd" clip-rule="evenodd" d="M20.3062 9.02243C19.7731 8.57897 18.8596 9.17047 18.8596 9.17047C19.2244 9.21163 20.6839 9.5336 20.7103 9.51369C20.7258 9.5024 20.6765 9.33046 20.3062 9.02243ZM16.8771 8.75954C16.6447 8.54445 15.7568 9.08882 15.9508 9.03172L17.0542 9.27602C17.0542 9.27602 17.1096 8.9733 16.8771 8.75954Z" fill="#05BB75"></path> <path d="M78.5331 31.3019C79.2787 31.3019 79.9129 31.5667 80.4355 32.0963C80.9652 32.6259 81.23 33.274 81.23 34.0406C81.23 34.8071 80.9652 35.4552 80.4355 35.9848C79.9129 36.5144 79.2787 36.7792 78.5331 36.7792C77.6063 36.7792 76.9024 36.396 76.4216 35.6294V38.7444H75.7317V31.4273H76.4216V32.4517C76.9024 31.6852 77.6063 31.3019 78.5331 31.3019ZM77.0174 35.5144C77.4146 35.9116 77.9024 36.1103 78.4808 36.1103C79.0592 36.1103 79.547 35.9116 79.9443 35.5144C80.3415 35.1033 80.5401 34.612 80.5401 34.0406C80.5401 33.4622 80.3415 32.9744 79.9443 32.5772C79.547 32.173 79.0592 31.9709 78.4808 31.9709C77.9024 31.9709 77.4146 32.173 77.0174 32.5772C76.6202 32.9744 76.4216 33.4622 76.4216 34.0406C76.4216 34.612 76.6202 35.1033 77.0174 35.5144ZM84.7917 31.3019C85.5722 31.3019 86.1959 31.5772 86.6628 32.1277C87.1436 32.6712 87.3841 33.3158 87.3841 34.0615C87.3841 34.0963 87.3771 34.2043 87.3632 34.3855H82.7743C82.844 34.9082 83.067 35.3263 83.4433 35.6399C83.8196 35.9535 84.29 36.1103 84.8544 36.1103C85.6489 36.1103 86.2098 35.8141 86.5374 35.2218L87.1436 35.5772C86.9137 35.9535 86.5966 36.2496 86.1924 36.4657C85.7952 36.6747 85.3457 36.7792 84.844 36.7792C84.0217 36.7792 83.3527 36.5214 82.837 36.0057C82.3213 35.49 82.0635 34.835 82.0635 34.0406C82.0635 33.2531 82.3179 32.6015 82.8266 32.0859C83.3353 31.5632 83.9903 31.3019 84.7917 31.3019ZM84.7917 31.9709C84.2482 31.9709 83.7917 32.1312 83.4224 32.4517C83.06 32.7723 82.844 33.1939 82.7743 33.7165H86.6733C86.5966 33.159 86.3841 32.7305 86.0356 32.4308C85.6733 32.1242 85.2586 31.9709 84.7917 31.9709ZM89.9031 33.936L92.7045 36.6538H91.7846L89.1714 34.1346V36.6538H88.4815V31.4273H89.1714V33.7374L91.6592 31.4273H92.5999L89.9031 33.936ZM94.1902 31.4273H97.9324V36.6538H97.2425V32.0963H94.8801V34.4273C94.8801 35.2984 94.7129 35.8977 94.3784 36.2252C94.0509 36.5528 93.5979 36.6956 93.0195 36.6538V36.0057C93.4237 36.0475 93.7199 35.95 93.908 35.713C94.0962 35.4761 94.1902 35.0475 94.1902 34.4273V31.4273ZM103.889 32.4517V31.4273H104.578V36.6538H103.889V35.6294C103.408 36.396 102.704 36.7792 101.777 36.7792C101.031 36.7792 100.394 36.5144 99.8642 35.9848C99.3415 35.4552 99.0802 34.8071 99.0802 34.0406C99.0802 33.274 99.3415 32.6259 99.8642 32.0963C100.394 31.5667 101.031 31.3019 101.777 31.3019C102.704 31.3019 103.408 31.6852 103.889 32.4517ZM100.366 35.5144C100.763 35.9116 101.251 36.1103 101.829 36.1103C102.408 36.1103 102.896 35.9116 103.293 35.5144C103.69 35.1033 103.889 34.612 103.889 34.0406C103.889 33.4622 103.69 32.9744 103.293 32.5772C102.896 32.173 102.408 31.9709 101.829 31.9709C101.251 31.9709 100.763 32.173 100.366 32.5772C99.9687 32.9744 99.7701 33.4622 99.7701 34.0406C99.7701 34.612 99.9687 35.1033 100.366 35.5144ZM110.367 31.4273H111.161V36.6538H110.471V32.4831L108.642 35.4517H108.558L106.729 32.4831V36.6538H106.039V31.4273H106.834L108.6 34.2914L110.367 31.4273ZM117.118 32.4517V31.4273H117.808V36.6538H117.118V35.6294C116.637 36.396 115.933 36.7792 115.007 36.7792C114.261 36.7792 113.623 36.5144 113.094 35.9848C112.571 35.4552 112.31 34.8071 112.31 34.0406C112.31 33.274 112.571 32.6259 113.094 32.0963C113.623 31.5667 114.261 31.3019 115.007 31.3019C115.933 31.3019 116.637 31.6852 117.118 32.4517ZM113.595 35.5144C113.993 35.9116 114.48 36.1103 115.059 36.1103C115.637 36.1103 116.125 35.9116 116.522 35.5144C116.919 35.1033 117.118 34.612 117.118 34.0406C117.118 33.4622 116.919 32.9744 116.522 32.5772C116.125 32.173 115.637 31.9709 115.059 31.9709C114.48 31.9709 113.993 32.173 113.595 32.5772C113.198 32.9744 113 33.4622 113 34.0406C113 34.612 113.198 35.1033 113.595 35.5144ZM125.582 33.7061V31.4273H126.272V36.6538H125.582V34.3751H122.572V36.6538H121.882V31.4273H122.572V33.7061H125.582ZM132.226 32.4517V31.4273H132.916V36.6538H132.226V35.6294C131.745 36.396 131.041 36.7792 130.114 36.7792C129.369 36.7792 128.731 36.5144 128.201 35.9848C127.679 35.4552 127.418 34.8071 127.418 34.0406C127.418 33.274 127.679 32.6259 128.201 32.0963C128.731 31.5667 129.369 31.3019 130.114 31.3019C131.041 31.3019 131.745 31.6852 132.226 32.4517ZM128.703 35.5144C129.1 35.9116 129.588 36.1103 130.167 36.1103C130.745 36.1103 131.233 35.9116 131.63 35.5144C132.027 35.1033 132.226 34.612 132.226 34.0406C132.226 33.4622 132.027 32.9744 131.63 32.5772C131.233 32.173 130.745 31.9709 130.167 31.9709C129.588 31.9709 129.1 32.173 128.703 32.5772C128.306 32.9744 128.107 33.4622 128.107 34.0406C128.107 34.612 128.306 35.1033 128.703 35.5144ZM136.363 31.4273H140.753V32.0963H138.903V36.6538H138.213V32.0963H136.363V31.4273ZM144.395 31.3019C145.141 31.3019 145.775 31.5667 146.297 32.0963C146.827 32.6259 147.092 33.274 147.092 34.0406C147.092 34.8071 146.827 35.4552 146.297 35.9848C145.775 36.5144 145.141 36.7792 144.395 36.7792C143.468 36.7792 142.764 36.396 142.283 35.6294V38.7444H141.594V31.4273H142.283V32.4517C142.764 31.6852 143.468 31.3019 144.395 31.3019ZM142.879 35.5144C143.276 35.9116 143.764 36.1103 144.343 36.1103C144.921 36.1103 145.409 35.9116 145.806 35.5144C146.203 35.1033 146.402 34.612 146.402 34.0406C146.402 33.4622 146.203 32.9744 145.806 32.5772C145.409 32.173 144.921 31.9709 144.343 31.9709C143.764 31.9709 143.276 32.173 142.879 32.5772C142.482 32.9744 142.283 33.4622 142.283 34.0406C142.283 34.612 142.482 35.1033 142.879 35.5144ZM152.734 32.4517V31.4273H153.424V36.6538H152.734V35.6294C152.253 36.396 151.549 36.7792 150.622 36.7792C149.877 36.7792 149.239 36.5144 148.709 35.9848C148.187 35.4552 147.925 34.8071 147.925 34.0406C147.925 33.274 148.187 32.6259 148.709 32.0963C149.239 31.5667 149.877 31.3019 150.622 31.3019C151.549 31.3019 152.253 31.6852 152.734 32.4517ZM149.211 35.5144C149.608 35.9116 150.096 36.1103 150.674 36.1103C151.253 36.1103 151.741 35.9116 152.138 35.5144C152.535 35.1033 152.734 34.612 152.734 34.0406C152.734 33.4622 152.535 32.9744 152.138 32.5772C151.741 32.173 151.253 31.9709 150.674 31.9709C150.096 31.9709 149.608 32.173 149.211 32.5772C148.814 32.9744 148.615 33.4622 148.615 34.0406C148.615 34.612 148.814 35.1033 149.211 35.5144ZM158.585 33.7061V31.4273H159.275V36.6538H158.585V34.3751H155.574V36.6538H154.884V31.4273H155.574V33.7061H158.585ZM163.169 36.7792C162.382 36.7792 161.727 36.5179 161.204 35.9953C160.681 35.4587 160.42 34.8071 160.42 34.0406C160.42 33.267 160.681 32.619 161.204 32.0963C161.727 31.5667 162.382 31.3019 163.169 31.3019C163.685 31.3019 164.148 31.4273 164.559 31.6782C164.97 31.9221 165.27 32.2531 165.458 32.6712L164.894 32.9953C164.754 32.6817 164.528 32.4343 164.214 32.2531C163.908 32.065 163.559 31.9709 163.169 31.9709C162.591 31.9709 162.103 32.173 161.706 32.5772C161.308 32.9744 161.11 33.4622 161.11 34.0406C161.11 34.612 161.308 35.1033 161.706 35.5144C162.103 35.9116 162.591 36.1103 163.169 36.1103C163.552 36.1103 163.897 36.0197 164.204 35.8385C164.517 35.6573 164.761 35.4064 164.936 35.0859L165.51 35.4204C165.294 35.8385 164.977 36.1695 164.559 36.4134C164.141 36.6573 163.678 36.7792 163.169 36.7792ZM166.501 31.4273H170.891V36.6538H170.201V32.0963H167.191V36.6538H166.501V31.4273ZM176.73 35.9953C176.193 36.5179 175.545 36.7792 174.786 36.7792C174.012 36.7792 173.361 36.5179 172.831 35.9953C172.301 35.4657 172.037 34.8141 172.037 34.0406C172.037 33.267 172.301 32.619 172.831 32.0963C173.361 31.5667 174.012 31.3019 174.786 31.3019C175.552 31.3019 176.2 31.5667 176.73 32.0963C177.267 32.619 177.535 33.267 177.535 34.0406C177.535 34.8071 177.267 35.4587 176.73 35.9953ZM173.322 35.5144C173.719 35.9116 174.207 36.1103 174.786 36.1103C175.364 36.1103 175.852 35.9116 176.249 35.5144C176.646 35.1033 176.845 34.612 176.845 34.0406C176.845 33.4622 176.646 32.9744 176.249 32.5772C175.852 32.173 175.364 31.9709 174.786 31.9709C174.207 31.9709 173.719 32.173 173.322 32.5772C172.925 32.9744 172.726 33.4622 172.726 34.0406C172.726 34.612 172.925 35.1033 173.322 35.5144ZM181.491 31.3019C182.236 31.3019 182.87 31.5667 183.393 32.0963C183.923 32.6259 184.188 33.274 184.188 34.0406C184.188 34.8071 183.923 35.4552 183.393 35.9848C182.87 36.5144 182.236 36.7792 181.491 36.7792C180.564 36.7792 179.86 36.396 179.379 35.6294V38.7444H178.689V31.4273H179.379V32.4517C179.86 31.6852 180.564 31.3019 181.491 31.3019ZM179.975 35.5144C180.372 35.9116 180.86 36.1103 181.438 36.1103C182.017 36.1103 182.505 35.9116 182.902 35.5144C183.299 35.1033 183.498 34.612 183.498 34.0406C183.498 33.4622 183.299 32.9744 182.902 32.5772C182.505 32.173 182.017 31.9709 181.438 31.9709C180.86 31.9709 180.372 32.173 179.975 32.5772C179.578 32.9744 179.379 33.4622 179.379 34.0406C179.379 34.612 179.578 35.1033 179.975 35.5144ZM184.503 31.4273H188.894V32.0963H187.043V36.6538H186.354V32.0963H184.503V31.4273ZM191.945 31.3019C192.725 31.3019 193.349 31.5772 193.816 32.1277C194.297 32.6712 194.537 33.3158 194.537 34.0615C194.537 34.0963 194.53 34.2043 194.516 34.3855H189.927C189.997 34.9082 190.22 35.3263 190.596 35.6399C190.973 35.9535 191.443 36.1103 192.008 36.1103C192.802 36.1103 193.363 35.8141 193.69 35.2218L194.297 35.5772C194.067 35.9535 193.75 36.2496 193.345 36.4657C192.948 36.6747 192.499 36.7792 191.997 36.7792C191.175 36.7792 190.506 36.5214 189.99 36.0057C189.474 35.49 189.217 34.835 189.217 34.0406C189.217 33.2531 189.471 32.6015 189.98 32.0859C190.488 31.5632 191.143 31.3019 191.945 31.3019ZM191.945 31.9709C191.401 31.9709 190.945 32.1312 190.575 32.4517C190.213 32.7723 189.997 33.1939 189.927 33.7165H193.826C193.75 33.159 193.537 32.7305 193.189 32.4308C192.826 32.1242 192.412 31.9709 191.945 31.9709Z" fill="#222D50"></path> <path fill-rule="evenodd" clip-rule="evenodd" d="M90.4733 3.5083V8.04375H82.3818V25.6037H76.4685V8.04375H68.3779V3.5083H90.4733Z" fill="#222D50" stroke="#222D50"></path> <path fill-rule="evenodd" clip-rule="evenodd" d="M98.2309 3.5083H103.697L114.093 25.6037H107.749L105.676 20.9165H95.6246L93.5831 25.6037H87.4265L98.2309 3.5083ZM103.603 16.4432L100.556 9.62624L97.5718 16.4432H103.603Z" fill="#222D50" stroke="#222D50"></path> <path fill-rule="evenodd" clip-rule="evenodd" d="M122.9 12L132.398 3.5083H139.661L129.729 12.0913L140.871 25.6037H133.95L125.755 15.4692L122.9 17.9644V25.6037H117.252V3.5083H122.9V12Z" fill="#222D50" stroke="#222D50"></path> <path fill-rule="evenodd" clip-rule="evenodd" d="M178.09 3.5083H183.399L193.499 25.6037H187.335L185.321 20.9165H175.557L173.574 25.6037H167.594L178.09 3.5083ZM183.307 16.4432L180.348 9.62624L177.45 16.4432H183.307Z" fill="#222D50" stroke="#222D50"></path> <path fill-rule="evenodd" clip-rule="evenodd" d="M147.798 14.5564C147.798 10.3629 150.574 7.81729 155.044 7.81729C158.275 7.81729 161.283 9.06059 162.297 12.1785L167.538 10.5155C165.585 5.34502 160.383 3.5083 155.044 3.5083C146.812 3.5083 141.633 7.90495 141.633 14.5564C141.633 21.2079 146.812 25.6037 155.044 25.6037C160.383 25.6037 165.585 23.7669 167.538 18.5965L162.297 16.9334C161.283 20.0522 158.275 21.2947 155.044 21.2947C150.574 21.2947 147.798 18.7491 147.798 14.5564Z" fill="#222D50" stroke="#222D50"></path> </svg> 