<?xml version="1.0" encoding="UTF-8"?> <svg xmlns="http://www.w3.org/2000/svg" width="195" height="41" viewBox="0 0 195 41" fill="none"> <path fill-rule="evenodd" clip-rule="evenodd" d="M54.5089 1.78744C51.2784 0.568598 48.077 1.70446 46.3149 4.56835C45.8459 4.11294 45.2858 3.69006 44.6182 3.31631C35.6451 -1.70711 24.2389 7.03326 24.2389 7.03326L23.7686 5.15254L23.7288 5.12466C25.6031 3.58849 26.1774 4.14348 27.7417 3.0833C28.8288 2.34641 28.2558 0.000998687 28.2558 0.000998687C26.2383 -0.0434799 24.7646 1.40838 22.9024 2.22957C22.2227 2.52897 22.0578 2.55354 21.726 3.20213L21.4868 3.66882C20.8091 3.45373 19.3024 3.24661 16.6469 4.16273C16.551 4.19592 16.4645 4.22646 16.378 4.25633C16.3895 4.09502 16.401 3.9337 16.4125 3.77238C16.4415 3.36809 16.5145 3.311 16.1942 3.06139C13.6232 1.05388 12.9597 -0.206125 9.92724 1.31876L7.82518 2.37562C7.82518 2.37562 7.32923 4.36985 9.58061 4.0273C10.6124 3.87063 10.4827 3.73521 11.4475 3.88457C13.4205 4.18995 13.2509 4.16339 13.7658 4.24306C14.3442 4.33201 13.6401 6.23596 14.6672 6.4869C14.5516 7.38045 14.155 8.81107 12.7597 11.2581C8.88195 18.056 5.32853 16.308 5.32853 16.308C5.32853 16.308 3.84 15.1854 2.74607 15.1914C-2.04994 15.2206 0.377794 19.1049 2.93188 19.2011C4.52379 19.2595 5.88732 18.0387 5.88732 18.0387C8.21032 17.9471 18.4449 15.7145 19.0098 19.952C19.4382 23.1743 20.7226 29.7352 20.6416 31.8669L18.2327 31.3365L19.5551 32.4046L18.1071 33.2165L20.3321 33.0426L21.4828 34.0835C21.7166 32.4677 21.5402 32.3628 21.3321 32.0833C21.8537 28.5722 20.5679 24.6328 20.8976 20.9637C21.7287 11.7281 25.0403 31.8018 24.8166 35.7963L22.3497 35.2532L23.672 36.3207L22.2247 37.1333L24.4484 36.9587L25.5991 37.9996C25.5991 37.9996 26.0004 36.5139 25.5423 36.1521C25.693 35.939 25.7545 35.4451 25.7761 34.8058C25.8639 32.2068 25.2065 26.8939 26.4437 21.593C28.0153 14.8615 37.2296 17.3549 37.7519 20.0655C38.0715 21.7231 37.512 33.1681 37.0147 33.0924L34.3836 32.5128L35.7059 33.5803L34.2586 34.3922L36.483 34.2176L37.6337 35.2592C37.6337 35.2592 38.2154 34.0809 37.6952 33.4987C39.1431 25.3564 38.3249 26.4983 39.6209 21.3341C40.6756 17.1332 42.9209 15.6687 41.1493 35.6164L38.8168 35.1025L40.1384 36.17L38.6911 36.9819L40.9161 36.8073L42.0662 37.8489C42.0662 37.8489 42.5398 36.2211 41.7324 35.7797L45.7 17.4578C45.7 17.4578 46.9453 14.9099 47.8737 12.5884C48.5798 10.8239 48.8514 7.79935 47.0264 5.3756C49.294 2.95783 51.2278 2.45329 54.5089 1.78744Z" fill="#05BB75"></path> <path fill-rule="evenodd" clip-rule="evenodd" d="M2.37778 16.1092C1.95142 16.1092 1.60547 15.9923 1.60547 15.8496C1.60547 15.7055 1.95142 15.5894 2.37778 15.5894C2.80413 15.5894 3.15008 15.7055 3.15008 15.8496C3.15008 15.9923 2.80413 16.1092 2.37778 16.1092Z" fill="#FEFEFE"></path> <path fill-rule="evenodd" clip-rule="evenodd" d="M19.4101 14.2281C20.0047 14.4405 20.154 14.9484 19.7047 15.6162C19.1459 16.4454 17.8277 17.2739 16.502 17.6881C16.2168 17.6144 15.9148 17.556 15.5999 17.5095C16.8236 17.2274 18.904 16.4387 19.5162 15.5306C19.9135 14.9404 19.8425 14.4751 19.4101 14.2281ZM19.0202 10.4547C18.8047 10.237 18.604 10.0245 18.5 9.79285C18.1797 9.08452 18.0641 8.60919 18.3743 7.88957C18.5277 7.53241 18.9594 7.30139 19.5459 7.39168C20.6561 7.56362 21.0743 7.69971 21.3155 8.90926C21.5405 10.0405 19.804 11.246 19.0202 10.4547ZM16.6817 10.2051C16.6817 10.2051 16.2202 10.2443 15.7526 9.61361C15.2844 8.98295 15.3817 8.57401 15.5452 8.26465C15.708 7.95397 16.002 7.38105 16.7682 7.53507C18.2364 7.83248 18.0209 10.0245 16.6817 10.2051Z" fill="#FEFEFE"></path> <path fill-rule="evenodd" clip-rule="evenodd" d="M20.3063 8.67575C19.7732 8.23229 18.8596 8.82379 18.8596 8.82379C19.2245 8.86495 20.684 9.18692 20.7103 9.16701C20.7259 9.15572 20.6766 8.98378 20.3063 8.67575ZM16.8772 8.41286C16.6447 8.19777 15.7569 8.74214 15.9508 8.68504L17.0542 8.92934C17.0542 8.92934 17.1096 8.62663 16.8772 8.41286Z" fill="#05BB75"></path> <path d="M78.8963 30.7366C79.7186 30.7366 80.418 31.0286 80.9943 31.6127C81.5784 32.1967 81.8704 32.9114 81.8704 33.7568C81.8704 34.6021 81.5784 35.3168 80.9943 35.9009C80.418 36.485 79.7186 36.777 78.8963 36.777C77.8742 36.777 77.098 36.3543 76.5677 35.509V38.9442H75.8069V30.8749H76.5677V32.0046C77.098 31.1592 77.8742 30.7366 78.8963 30.7366ZM77.2248 35.3822C77.6629 35.8202 78.2008 36.0392 78.8387 36.0392C79.4765 36.0392 80.0145 35.8202 80.4525 35.3822C80.8906 34.9287 81.1096 34.387 81.1096 33.7568C81.1096 33.1189 80.8906 32.581 80.4525 32.1429C80.0145 31.6972 79.4765 31.4743 78.8387 31.4743C78.2008 31.4743 77.6629 31.6972 77.2248 32.1429C76.7868 32.581 76.5677 33.1189 76.5677 33.7568C76.5677 34.387 76.7868 34.9287 77.2248 35.3822ZM85.7984 30.7366C86.6591 30.7366 87.3469 31.0401 87.8618 31.6472C88.3921 32.2467 88.6572 32.9575 88.6572 33.7798C88.6572 33.8183 88.6495 33.9374 88.6341 34.1372H83.5735C83.6504 34.7136 83.8963 35.1747 84.3113 35.5205C84.7263 35.8663 85.245 36.0392 85.8675 36.0392C86.7436 36.0392 87.3623 35.7126 87.7235 35.0594L88.3921 35.4513C88.1385 35.8663 87.7888 36.1929 87.343 36.4312C86.905 36.6617 86.4093 36.777 85.856 36.777C84.9492 36.777 84.2114 36.4927 83.6427 35.924C83.074 35.3553 82.7897 34.6329 82.7897 33.7568C82.7897 32.8884 83.0702 32.1698 83.6312 31.6011C84.1922 31.0247 84.9146 30.7366 85.7984 30.7366ZM85.7984 31.4743C85.1989 31.4743 84.6956 31.6511 84.2882 32.0046C83.8886 32.3581 83.6504 32.823 83.5735 33.3994H87.8733C87.7888 32.7846 87.5544 32.312 87.1701 31.9815C86.7705 31.6434 86.3133 31.4743 85.7984 31.4743ZM91.4352 33.6415L94.5245 36.6387H93.5101L90.6282 33.8605V36.6387H89.8674V30.8749H90.6282V33.4225L93.3718 30.8749H94.4093L91.4352 33.6415ZM96.1631 30.8749H100.29V36.6387H99.5291V31.6127H96.9239V34.1833C96.9239 35.1439 96.7395 35.8048 96.3706 36.166C96.0094 36.5272 95.5098 36.6848 94.872 36.6387V35.924C95.3177 35.9701 95.6443 35.8625 95.8518 35.6012C96.0593 35.3399 96.1631 34.8673 96.1631 34.1833V30.8749ZM106.858 32.0046V30.8749H107.619V36.6387H106.858V35.509C106.328 36.3543 105.552 36.777 104.53 36.777C103.708 36.777 103.004 36.485 102.42 35.9009C101.844 35.3168 101.556 34.6021 101.556 33.7568C101.556 32.9114 101.844 32.1967 102.42 31.6127C103.004 31.0286 103.708 30.7366 104.53 30.7366C105.552 30.7366 106.328 31.1592 106.858 32.0046ZM102.974 35.3822C103.412 35.8202 103.95 36.0392 104.587 36.0392C105.225 36.0392 105.763 35.8202 106.201 35.3822C106.639 34.9287 106.858 34.387 106.858 33.7568C106.858 33.1189 106.639 32.581 106.201 32.1429C105.763 31.6972 105.225 31.4743 104.587 31.4743C103.95 31.4743 103.412 31.6972 102.974 32.1429C102.536 32.581 102.317 33.1189 102.317 33.7568C102.317 34.387 102.536 34.9287 102.974 35.3822ZM114.003 30.8749H114.879V36.6387H114.118V32.0392L112.1 35.313H112.008L109.991 32.0392V36.6387H109.23V30.8749H110.106L112.054 34.0334L114.003 30.8749ZM120.572 33.3879V30.8749H121.333V36.6387H120.572V34.1257H117.252V36.6387H116.491V30.8749H117.252V33.3879H120.572ZM127.772 35.9124C127.18 36.4888 126.465 36.777 125.628 36.777C124.774 36.777 124.056 36.4888 123.472 35.9124C122.888 35.3284 122.596 34.6098 122.596 33.7568C122.596 32.9037 122.888 32.189 123.472 31.6127C124.056 31.0286 124.774 30.7366 125.628 30.7366C126.473 30.7366 127.188 31.0286 127.772 31.6127C128.363 32.189 128.659 32.9037 128.659 33.7568C128.659 34.6021 128.363 35.3207 127.772 35.9124ZM124.014 35.3822C124.452 35.8202 124.99 36.0392 125.628 36.0392C126.265 36.0392 126.803 35.8202 127.241 35.3822C127.679 34.9287 127.898 34.387 127.898 33.7568C127.898 33.1189 127.679 32.581 127.241 32.1429C126.803 31.6972 126.265 31.4743 125.628 31.4743C124.99 31.4743 124.452 31.6972 124.014 32.1429C123.576 32.581 123.357 33.1189 123.357 33.7568C123.357 34.387 123.576 34.9287 124.014 35.3822ZM132.595 30.7366C133.456 30.7366 134.144 31.0401 134.659 31.6472C135.189 32.2467 135.454 32.9575 135.454 33.7798C135.454 33.8183 135.446 33.9374 135.431 34.1372H130.37C130.447 34.7136 130.693 35.1747 131.108 35.5205C131.523 35.8663 132.042 36.0392 132.664 36.0392C133.541 36.0392 134.159 35.7126 134.52 35.0594L135.189 35.4513C134.935 35.8663 134.586 36.1929 134.14 36.4312C133.702 36.6617 133.206 36.777 132.653 36.777C131.746 36.777 131.008 36.4927 130.44 35.924C129.871 35.3553 129.587 34.6329 129.587 33.7568C129.587 32.8884 129.867 32.1698 130.428 31.6011C130.989 31.0247 131.712 30.7366 132.595 30.7366ZM132.595 31.4743C131.996 31.4743 131.493 31.6511 131.085 32.0046C130.686 32.3581 130.447 32.823 130.37 33.3994H134.67C134.586 32.7846 134.351 32.312 133.967 31.9815C133.567 31.6434 133.11 31.4743 132.595 31.4743ZM144.503 32.0046V30.8749H145.264V36.6387H144.503V35.509C143.973 36.3543 143.197 36.777 142.175 36.777C141.352 36.777 140.649 36.485 140.065 35.9009C139.489 35.3168 139.2 34.6021 139.2 33.7568C139.2 32.9114 139.489 32.1967 140.065 31.6127C140.649 31.0286 141.352 30.7366 142.175 30.7366C143.197 30.7366 143.973 31.1592 144.503 32.0046ZM140.618 35.3822C141.056 35.8202 141.594 36.0392 142.232 36.0392C142.87 36.0392 143.408 35.8202 143.846 35.3822C144.284 34.9287 144.503 34.387 144.503 33.7568C144.503 33.1189 144.284 32.581 143.846 32.1429C143.408 31.6972 142.87 31.4743 142.232 31.4743C141.594 31.4743 141.056 31.6972 140.618 32.1429C140.18 32.581 139.961 33.1189 139.961 33.7568C139.961 34.387 140.18 34.9287 140.618 35.3822ZM146.875 30.8749H150.564V31.6127H147.636V36.6387H146.875V30.8749ZM153.928 30.7366C154.789 30.7366 155.477 31.0401 155.991 31.6472C156.522 32.2467 156.787 32.9575 156.787 33.7798C156.787 33.8183 156.779 33.9374 156.764 34.1372H151.703C151.78 34.7136 152.026 35.1747 152.441 35.5205C152.856 35.8663 153.375 36.0392 153.997 36.0392C154.873 36.0392 155.492 35.7126 155.853 35.0594L156.522 35.4513C156.268 35.8663 155.918 36.1929 155.473 36.4312C155.035 36.6617 154.539 36.777 153.986 36.777C153.079 36.777 152.341 36.4927 151.772 35.924C151.204 35.3553 150.919 34.6329 150.919 33.7568C150.919 32.8884 151.2 32.1698 151.761 31.6011C152.322 31.0247 153.044 30.7366 153.928 30.7366ZM153.928 31.4743C153.329 31.4743 152.825 31.6511 152.418 32.0046C152.018 32.3581 151.78 32.823 151.703 33.3994H156.003C155.918 32.7846 155.684 32.312 155.3 31.9815C154.9 31.6434 154.443 31.4743 153.928 31.4743ZM162.078 33.3879V30.8749H162.839V36.6387H162.078V34.1257H158.758V36.6387H157.997V30.8749H158.758V33.3879H162.078ZM163.756 30.8749H168.598V31.6127H166.557V36.6387H165.796V31.6127H163.756V30.8749ZM171.985 36.777C171.117 36.777 170.395 36.4888 169.818 35.9124C169.242 35.3207 168.954 34.6021 168.954 33.7568C168.954 32.9037 169.242 32.189 169.818 31.6127C170.395 31.0286 171.117 30.7366 171.985 30.7366C172.554 30.7366 173.065 30.8749 173.519 31.1516C173.972 31.4205 174.302 31.7856 174.51 32.2467L173.887 32.604C173.734 32.2582 173.484 31.9854 173.138 31.7856C172.8 31.5781 172.416 31.4743 171.985 31.4743C171.348 31.4743 170.81 31.6972 170.372 32.1429C169.934 32.581 169.715 33.1189 169.715 33.7568C169.715 34.387 169.934 34.9287 170.372 35.3822C170.81 35.8202 171.348 36.0392 171.985 36.0392C172.408 36.0392 172.789 35.9393 173.127 35.7395C173.473 35.5397 173.741 35.263 173.934 34.9095L174.568 35.2784C174.329 35.7395 173.98 36.1046 173.519 36.3735C173.058 36.6425 172.546 36.777 171.985 36.777ZM174.856 30.8749H179.697V31.6127H177.657V36.6387H176.896V31.6127H174.856V30.8749ZM184.29 33.6761C184.92 33.9066 185.235 34.3562 185.235 35.0248C185.235 35.5013 185.074 35.8894 184.751 36.1891C184.436 36.4888 183.994 36.6387 183.426 36.6387H180.624V30.8749H183.195C183.748 30.8749 184.179 31.0171 184.486 31.3014C184.801 31.5858 184.959 31.9585 184.959 32.4196C184.959 32.996 184.736 33.4148 184.29 33.6761ZM183.195 31.6127H181.385V33.3648H183.195C183.864 33.3648 184.198 33.0651 184.198 32.4657C184.198 32.1967 184.11 31.9892 183.933 31.8432C183.764 31.6895 183.518 31.6127 183.195 31.6127ZM181.385 35.9009H183.426C183.764 35.9009 184.021 35.8202 184.198 35.6588C184.382 35.4974 184.475 35.2707 184.475 34.9787C184.475 34.702 184.382 34.4869 184.198 34.3332C184.021 34.1795 183.764 34.1026 183.426 34.1026H181.385V35.9009ZM191.218 35.9124C190.627 36.4888 189.912 36.777 189.074 36.777C188.221 36.777 187.503 36.4888 186.919 35.9124C186.334 35.3284 186.042 34.6098 186.042 33.7568C186.042 32.9037 186.334 32.189 186.919 31.6127C187.503 31.0286 188.221 30.7366 189.074 30.7366C189.92 30.7366 190.634 31.0286 191.218 31.6127C191.81 32.189 192.106 32.9037 192.106 33.7568C192.106 34.6021 191.81 35.3207 191.218 35.9124ZM187.46 35.3822C187.898 35.8202 188.436 36.0392 189.074 36.0392C189.712 36.0392 190.25 35.8202 190.688 35.3822C191.126 34.9287 191.345 34.387 191.345 33.7568C191.345 33.1189 191.126 32.581 190.688 32.1429C190.25 31.6972 189.712 31.4743 189.074 31.4743C188.436 31.4743 187.898 31.6972 187.46 32.1429C187.022 32.581 186.803 33.1189 186.803 33.7568C186.803 34.387 187.022 34.9287 187.46 35.3822Z" fill="white"></path> <path fill-rule="evenodd" clip-rule="evenodd" d="M90.4733 3.16162V7.69707H82.3818V25.257H76.4685V7.69707H68.3779V3.16162H90.4733Z" fill="white" stroke="white"></path> <path fill-rule="evenodd" clip-rule="evenodd" d="M98.2307 3.16162H103.697L114.093 25.257H107.749L105.675 20.5698H95.6243L93.5828 25.257H87.4263L98.2307 3.16162ZM103.603 16.0965L100.556 9.27956L97.5715 16.0965H103.603Z" fill="white" stroke="white"></path> <path fill-rule="evenodd" clip-rule="evenodd" d="M122.901 11.6533L132.398 3.16162H139.661L129.729 11.7447L140.871 25.257H133.95L125.756 15.1225L122.901 17.6178V25.257H117.252V3.16162H122.901V11.6533Z" fill="white" stroke="white"></path> <path fill-rule="evenodd" clip-rule="evenodd" d="M178.09 3.16162H183.399L193.499 25.257H187.335L185.321 20.5698H175.557L173.574 25.257H167.594L178.09 3.16162ZM183.307 16.0965L180.348 9.27956L177.45 16.0965H183.307Z" fill="white" stroke="white"></path> <path fill-rule="evenodd" clip-rule="evenodd" d="M147.798 14.2097C147.798 10.0162 150.574 7.47061 155.044 7.47061C158.275 7.47061 161.283 8.71391 162.297 11.8319L167.538 10.1688C165.585 4.99834 160.383 3.16162 155.044 3.16162C146.812 3.16162 141.633 7.55827 141.633 14.2097C141.633 20.8612 146.812 25.257 155.044 25.257C160.383 25.257 165.585 23.4203 167.538 18.2498L162.297 16.5867C161.283 19.7055 158.275 20.948 155.044 20.948C150.574 20.948 147.798 18.4024 147.798 14.2097Z" fill="white" stroke="white"></path> </svg> 