<?xml version="1.0" encoding="UTF-8"?> <svg xmlns="http://www.w3.org/2000/svg" width="24" height="25" viewBox="0 0 24 25" fill="none"> <path opacity="0.4" d="M14.4183 5.98976C13.9423 5.90182 13.5051 6.20561 13.4145 6.67029C13.3238 7.13497 13.6286 7.58866 14.0917 7.6796C15.4859 7.95141 16.5625 9.03067 16.8354 10.4297V10.4307C16.9131 10.8334 17.2676 11.1262 17.6759 11.1262C17.7307 11.1262 17.7855 11.1212 17.8412 11.1112C18.3043 11.0183 18.6091 10.5656 18.5185 10.0999C18.1111 8.01037 16.5027 6.39648 14.4183 5.98976Z" fill="#05BB75"></path> <path opacity="0.4" d="M14.3561 2.50793C14.133 2.47595 13.9089 2.54191 13.7307 2.68381C13.5474 2.82771 13.4329 3.03557 13.408 3.26841C13.3552 3.73908 13.6948 4.16479 14.1649 4.21776C17.4065 4.57951 19.9262 7.10477 20.2907 10.3565C20.3395 10.7922 20.705 11.121 21.1412 11.121C21.174 11.121 21.2059 11.119 21.2388 11.115C21.4668 11.09 21.67 10.9771 21.8134 10.7972C21.9558 10.6174 22.0206 10.3935 21.9947 10.1647C21.5405 6.10746 18.4005 2.95862 14.3561 2.50793Z" fill="#05BB75"></path> <path d="M17.6049 15.1732C16.9566 15.0353 16.4437 15.3351 15.9896 15.5969C15.5245 15.8667 14.6391 16.5812 14.1332 16.3974C11.5379 15.3341 9.09693 13.0706 8.04028 10.4764C7.85405 9.95977 8.56811 9.07338 8.83601 8.6057C9.09793 8.15201 9.39272 7.63537 9.25827 6.98582C9.13677 6.40122 7.56524 4.40959 7.00952 3.86496C6.64204 3.50521 6.26758 3.30734 5.88216 3.27436C4.43313 3.21341 2.81479 5.13908 2.53095 5.59977C1.81888 6.58209 1.82386 7.8892 2.5429 9.47411C4.27577 13.7312 10.8298 20.1558 15.1201 21.9465C15.9109 22.3153 16.6359 22.5002 17.2862 22.5002C17.9226 22.5002 18.4893 22.3233 18.9763 21.9725C19.3428 21.7617 21.3565 20.0698 21.3027 18.5878C21.2718 18.2101 21.0736 17.8324 20.7171 17.4666C20.1734 16.908 18.1875 15.2961 17.6049 15.1732Z" fill="#05BB75"></path> </svg> 