<?xml version="1.0" encoding="iso-8859-1"?>
<!-- Uploaded to: SVG Repo, www.svgrepo.com, Generator: SVG Repo Mixer Tools -->
<svg fill="#ffffff" height="800px" width="800px" version="1.1" id="Capa_1" xmlns="http://www.w3.org/2000/svg" xmlns:xlink="http://www.w3.org/1999/xlink" 
	 viewBox="0 0 412.138 412.138" xml:space="preserve">
<g>
	<path d="M110.827,22.911c-49.525,22.33-44.219,121.392,5.979,135.79c10.836,6.934,24.169,7.857,38.306-3.28
		C199.863,120.162,181.925-9.145,110.827,22.911z"/>
	<path d="M374.03,139.987c-0.359-1.709-1.303-3.341-3.155-4.544c-38.531-25.098-2.726-114.251-71.628-110.262
		c-58.842,3.406-39.708,81.01-68.053,112.918c-0.232,0.262-0.144,0.536-0.302,0.805c-2.645,1.565-4.122,5.237-1.426,7.938
		c12.527,12.55,29.548,15.969,46.81,16.862c2.479,8.794,15.033,15.899,23.057,16.899c7.218,0.9,14.363-0.878,20.261-5.16
		c3.698-2.682,8.077-7.355,9.093-12.26c17.57-1.209,35.928-4.4,45.584-13.237C377.745,146.765,376.706,142.683,374.03,139.987z"/>
	<path d="M407.587,246.585c-5.323-23.378-21.2-42.237-45.383-45.489c-2.495-2.727-7.225-3.681-10.014-0.572
		c-15.091,16.813-30.111,28.221-54.003,26.515c-20.979-1.496-32.944-13.685-48.667-24.593c-0.162-2.329-1.685-4.581-4.38-4.445
		c-28.001,1.414-46.092,17.4-51.518,44.808c-8.635,43.616-1.395,92.691-0.264,136.863c0.055,2.126,0.917,3.714,2.155,4.82
		c0.341,1.859,1.337,3.58,3.059,4.419c20.716,10.099,58.374,2.819,81.257,3.081c39.885,0.455,79.996,2.386,119.849,0.508
		c3.426-0.161,5.492-2.168,6.272-4.596c0.93-1.14,1.627-2.529,1.669-4.388C408.588,340.146,417.303,289.25,407.587,246.585z"/>
	<path d="M203.222,193.375c-0.237-0.326-0.195-0.716-0.538-1.01c-7.01-5.987-17.351-9.745-26.59-12.372
		c-3.07-2.685-8.546-2.388-10.313,2.787c-5.456,15.985-9.596,32.423-14.3,48.645c-1.949,6.726-3.947,15.761-7.443,23.501
		c-1.33-18.873-4.341-38.496-9.027-55.846c0.525-0.579,1.055-1.126,1.567-1.865c8.493-12.249-7.662-18.374-17.371-15.095
		c-2.503,0.846-2.892,3.184-1.967,5.284c-0.059,0.186-0.278,0.254-0.278,0.471c-0.009,3.91,1.276,7.536,3.212,10.297
		c-3.015,11.548-5.142,23.544-7.552,35.096c-0.022,0.102-0.037,0.207-0.057,0.309c-0.355,0.859-0.91,1.554-0.928,2.657
		c-0.013,0.732,0.037,1.454,0.031,2.185c-1.264,6.296-2.53,12.609-3.52,18.978c-5.222-11.945-7.507-28.843-9.489-35.916
		c-3.816-13.606-7.362-27.144-13.964-39.697c-0.007-0.012-0.02-0.012-0.026-0.023c-1.501-2.676-4.866-4.563-8.469-2.994
		c-13.573,5.912-27.002,12.316-40.326,18.774c-7.453,3.612-17.891,7.143-22.954,14.314c-2.225,0.612-4.222,2.32-4.574,5.17
		C1.657,270.861-2.859,327.893,2.108,382.024c0.131,1.446,0.766,2.487,1.619,3.189c0.564,1.236,1.488,2.323,3.157,2.541
		c53.853,7.072,110.84,5.224,165.04,2.861c3.522-0.153,5.516-2.495,6.126-5.158c0.048-0.181,0.225-0.208,0.256-0.405
		c8.627-55.02-20.668-142.787,25.114-185.404C205.621,197.597,204.943,194.998,203.222,193.375z"/>
</g>
</svg>