<?xml version="1.0" encoding="UTF-8"?> <svg xmlns="http://www.w3.org/2000/svg" width="86" height="128" viewBox="0 0 86 128" fill="none"> <path d="M64.5 42.6667C64.5 36.7778 62.4004 31.75 58.2012 27.5833C54.002 23.4167 48.9349 21.3333 43 21.3333C37.0651 21.3333 31.998 23.4167 27.7988 27.5833C23.5996 31.75 21.5 36.7778 21.5 42.6667C21.5 48.5556 23.5996 53.5833 27.7988 57.75C31.998 61.9167 37.0651 64 43 64C48.9349 64 54.002 61.9167 58.2012 57.75C62.4004 53.5833 64.5 48.5556 64.5 42.6667ZM86 42.6667C86 48.7222 85.0762 53.6944 83.2285 57.5833L52.6582 122.083C51.7624 123.917 50.4326 125.361 48.6689 126.417C46.9053 127.472 45.0156 128 43 128C40.9844 128 39.0947 127.472 37.3311 126.417C35.5674 125.361 34.2656 123.917 33.4258 122.083L2.77148 57.5833C0.923828 53.6944 0 48.7222 0 42.6667C0 30.8889 4.19922 20.8333 12.5977 12.5C20.9961 4.16667 31.1302 0 43 0C54.8698 0 65.0039 4.16667 73.4023 12.5C81.8008 20.8333 86 30.8889 86 42.6667Z" fill="#05BB75"></path> </svg> 