<?xml version="1.0" encoding="UTF-8"?> <svg xmlns="http://www.w3.org/2000/svg" width="161" height="184" viewBox="0 0 161 184" fill="none"> <path d="M40.2529 103.5C38.7278 103.5 37.2651 104.106 36.1867 105.184C35.1083 106.262 34.5025 107.725 34.5025 109.25V132.25C34.5025 133.775 35.1083 135.238 36.1867 136.316C37.2651 137.394 38.7278 138 40.2529 138C41.778 138 43.2406 137.394 44.319 136.316C45.3974 135.238 46.0033 133.775 46.0033 132.25V130.341H49.8446C53.4042 130.341 56.818 128.927 59.335 126.41C61.852 123.893 63.266 120.48 63.266 116.92C63.266 113.361 61.852 109.948 59.335 107.431C56.818 104.914 53.4042 103.5 49.8446 103.5H40.2529ZM49.8446 118.841H46.0033V115H49.8331C50.3424 115 50.831 115.202 51.1912 115.562C51.5513 115.923 51.7537 116.411 51.7537 116.92C51.7537 117.43 51.5513 117.918 51.1912 118.278C50.831 118.639 50.3539 118.841 49.8446 118.841ZM103.507 109.238C103.51 107.715 104.118 106.256 105.196 105.18C106.274 104.104 107.735 103.5 109.258 103.5H120.747C122.272 103.5 123.735 104.106 124.813 105.184C125.892 106.262 126.498 107.725 126.498 109.25C126.498 110.775 125.892 112.238 124.813 113.316C123.735 114.394 122.272 115 120.747 115H115.008V118.853H120.759C122.284 118.853 123.746 119.458 124.825 120.537C125.903 121.615 126.509 123.078 126.509 124.603C126.509 126.127 125.903 127.59 124.825 128.668C123.746 129.747 122.284 130.353 120.759 130.353H115.008L115.02 132.238C115.021 132.994 114.874 133.742 114.586 134.44C114.299 135.138 113.876 135.773 113.344 136.308C112.267 137.388 110.806 137.997 109.281 138C107.756 138.003 106.292 137.4 105.211 136.324C104.131 135.248 103.522 133.786 103.519 132.262L103.507 124.591V109.238ZM74.7553 103.5C73.2302 103.5 71.7676 104.106 70.6892 105.184C69.6108 106.262 69.0049 107.725 69.0049 109.25V132.25C69.0049 133.775 69.6108 135.238 70.6892 136.316C71.7676 137.394 73.2302 138 74.7553 138H80.5287C85.1041 138 89.492 136.183 92.7272 132.948C95.9624 129.713 97.78 125.325 97.78 120.75C97.78 116.175 95.9624 111.787 92.7272 108.552C89.492 105.317 85.1041 103.5 80.5287 103.5H74.7553ZM80.5057 126.5V115H80.5287C82.0539 115 83.5165 115.606 84.5949 116.684C85.6733 117.762 86.2792 119.225 86.2792 120.75C86.2792 122.275 85.6733 123.738 84.5949 124.816C83.5165 125.894 82.0539 126.5 80.5287 126.5H80.5057ZM11.5123 23C11.5123 16.9 13.9357 11.0499 18.2493 6.73654C22.563 2.42321 28.4135 0 34.514 0H87.2452C89.5119 0.000483468 91.7562 0.447615 93.85 1.31584C95.9437 2.18406 97.8458 3.45635 99.4476 5.06L144.462 50.071C147.698 53.3029 149.518 57.6876 149.522 62.261V81.443C152.881 82.6358 155.788 84.8395 157.843 87.7513C159.898 90.6631 161.001 94.14 161 97.704V143.738C161.001 147.303 159.898 150.779 157.843 153.691C155.788 156.603 152.881 158.807 149.522 160V161C149.522 167.1 147.099 172.95 142.785 177.263C138.472 181.577 132.621 184 126.521 184H34.5025C28.402 184 22.5515 181.577 18.2378 177.263C13.9242 172.95 11.5008 167.1 11.5008 161V160C8.13963 158.811 5.22916 156.611 3.16969 153.701C1.11021 150.791 0.00288471 147.315 0 143.75V97.7155C0.00050787 94.1487 1.10673 90.6698 3.16637 87.7577C5.22601 84.8455 8.13778 82.6434 11.5008 81.4545L11.5123 23ZM138.021 69H97.7685C95.5021 69.0015 93.2575 68.5564 91.1632 67.6902C89.0688 66.824 87.1657 65.5536 85.5626 63.9517C83.9594 62.3497 82.6877 60.4476 81.82 58.3539C80.9523 56.2603 80.5057 54.0163 80.5057 51.75V11.5H34.5025C31.4523 11.5 28.527 12.7116 26.3702 14.8683C24.2133 17.0249 23.0016 19.95 23.0016 23V80.454H138.01V69H138.021ZM23.0016 160.988C23.0001 162.5 23.2965 163.996 23.8738 165.393C24.4511 166.789 25.298 168.059 26.3661 169.128C27.4342 170.197 28.7025 171.045 30.0986 171.624C31.4947 172.202 32.9912 172.5 34.5025 172.5H126.509C128.02 172.5 129.517 172.202 130.913 171.624C132.309 171.045 133.577 170.197 134.645 169.128C135.714 168.059 136.56 166.789 137.138 165.393C137.715 163.996 138.011 162.5 138.01 160.988H23.0016ZM92.0066 13.8805V51.75C92.0066 53.275 92.6124 54.7375 93.6908 55.8159C94.7692 56.8942 96.2319 57.5 97.757 57.5H135.618L92.0066 13.8805ZM17.2742 91.954C15.7491 91.954 14.2865 92.5598 13.2081 93.6381C12.1297 94.7165 11.5238 96.179 11.5238 97.704V143.738C11.5238 145.263 12.1297 146.726 13.2081 147.804C14.2865 148.883 15.7491 149.488 17.2742 149.488H143.749C145.274 149.488 146.737 148.883 147.815 147.804C148.893 146.726 149.499 145.263 149.499 143.738V97.704C149.499 96.179 148.893 94.7165 147.815 93.6381C146.737 92.5598 145.274 91.954 143.749 91.954H17.2742Z" fill="#05BB75"></path> </svg> 