<?xml version="1.0" encoding="iso-8859-1"?>
<!-- Uploaded to: SVG Repo, www.svgrepo.com, Generator: SVG Repo Mixer Tools -->
<!DOCTYPE svg PUBLIC "-//W3C//DTD SVG 1.1//EN" "http://www.w3.org/Graphics/SVG/1.1/DTD/svg11.dtd">
<svg fill="#ffffff" height="800px" width="800px" version="1.1" id="Capa_1" xmlns="http://www.w3.org/2000/svg" xmlns:xlink="http://www.w3.org/1999/xlink" 
	 viewBox="0 0 420.349 420.349" xml:space="preserve">
<g>
	<path d="M297.142,0c-27.15,0-52.093,9.617-71.611,25.619c7.026,4.368,13.431,9.643,19.05,15.663
		c14.744-10.816,32.919-17.212,52.562-17.212c49.105,0,89.054,39.948,89.054,89.053c0,49.106-39.948,89.055-89.054,89.055
		c-13.535,0-26.37-3.041-37.87-8.466c-2.85,7.194-6.449,14.499-10.629,21.596c14.707,7.01,31.151,10.938,48.499,10.938
		c62.375,0,113.122-50.746,113.122-113.123C410.264,50.748,359.517,0,297.142,0z"/>
	<path d="M298.839,40.006c-4.985,0-9.022,4.042-9.022,9.026v66.899c0,4.983,4.037,9.024,9.022,9.024h44.489
		c4.984,0,9.026-4.042,9.026-9.024c0-4.985-4.042-9.025-9.026-9.025h-35.465V49.033C307.863,44.048,303.823,40.006,298.839,40.006z"
		/>
	<path d="M274.307,244.973l-49.387-14.968c-1.191-3.608-3.838-6.73-7.537-9.371c4.07-4.524,7.506-9.103,10.119-12.891
		c6.199-8.987,11.355-18.667,14.928-28.006c1.76-3.939,3.26-7.893,4.475-11.774c4.809-4.03,7.639-10.049,7.639-16.363v-15.467
		c0-4.438-1.396-8.779-3.965-12.378v-21.774c0-38.197-31.074-69.267-69.265-69.267h-22.456c-38.194,0-69.268,31.07-69.268,69.267
		v21.776c-2.567,3.598-3.963,7.941-3.963,12.376V151.6c0,6.31,2.831,12.325,7.639,16.361c1.213,3.875,2.714,7.833,4.474,11.781
		c3.573,9.336,8.732,19.014,14.928,27.996c2.613,3.789,6.05,8.37,10.121,12.896c-3.701,2.641-6.347,5.763-7.54,9.371l-49.385,14.968
		c-34.77,9.992-55.606,160.223-55.606,160.223h0.004c-0.104,0.668-0.176,1.346-0.176,2.044c0,7.24,5.868,13.109,13.109,13.109
		h293.781c7.242,0,13.109-5.869,13.109-13.109C330.085,400.954,309.077,254.965,274.307,244.973z M156.795,283.864
		c-0.188,1.815-1.467,3.332-3.226,3.822c-0.395,0.109-0.794,0.164-1.191,0.164c-1.371,0-2.692-0.638-3.545-1.768l-12.476-16.548
		c-0.581-0.771-0.895-1.71-0.894-2.676l0.016-26.532c0.001-1.556,0.816-2.998,2.149-3.801c1.334-0.803,2.99-0.849,4.365-0.122
		c3.632,1.92,7.258,3.21,10.778,3.836c2.119,0.376,3.664,2.218,3.664,4.371v11.069c0.632,0.249,1.207,0.643,1.672,1.158
		c0.842,0.933,1.249,2.179,1.12,3.429L156.795,283.864z M203.794,269.535l-12.457,16.537c-0.853,1.13-2.175,1.768-3.548,1.768
		c-0.394,0-0.795-0.053-1.188-0.162c-1.758-0.49-3.038-2.006-3.226-3.823l-2.433-23.587c-0.13-1.25,0.278-2.496,1.12-3.429
		c0.464-0.516,1.038-0.91,1.669-1.158V244.61c0-2.153,1.547-3.995,3.666-4.371c3.518-0.626,7.143-1.915,10.773-3.833
		c1.378-0.728,3.034-0.68,4.367,0.122c1.334,0.804,2.149,2.247,2.149,3.803l0.002,26.532
		C204.691,267.827,204.377,268.764,203.794,269.535z M182.011,216.751h-23.852c-5.27,0-15.445-7.049-26.303-22.797
		c-8.572-12.422-14.527-26.173-15.929-36.781l-0.24-1.839l-4.309-2.8c-1.26-0.819-2.02-2.22-2.02-3.723v-7.309
		c0-2.452,1.987-4.44,4.439-4.44h1.814v-7.917c0-1.684,0.951-3.221,2.457-3.973c6.113-3.052,18.242-8.171,30.801-8.171
		c10.021,0,18.33,3.334,24.696,9.907c7.933,8.198,17.073,12.354,27.174,12.354c5.716,0,11.627-1.348,17.565-4.009
		c1.373-0.616,2.965-0.493,4.229,0.325c0.592,0.383,1.074,0.895,1.42,1.483h2.422c2.451,0,4.439,1.988,4.439,4.44v7.31
		c0,1.503-0.762,2.904-2.021,3.723l-4.309,2.8l-0.238,1.829c-1.404,10.615-7.359,24.369-15.932,36.794
		C197.455,209.702,187.281,216.751,182.011,216.751z"/>
</g>
</svg>