<svg width="100" height="71" viewBox="0 0 100 71" fill="none" xmlns="http://www.w3.org/2000/svg">
<path fill-rule="evenodd" clip-rule="evenodd" d="M99.7 4C93.8 1.8 88 3.80001 84.7 9.10001C83.8 8.30001 82.8 7.5 81.6 6.8C65.2 -2.4 44.4 13.6 44.4 13.6L43.5 10.2L43.4 10.1C46.8 7.30001 47.9 8.29999 50.7 6.39999C52.7 5.09999 51.6 0.800004 51.6 0.800004C47.9 0.700004 45.2 3.39999 41.8 4.89999C40.6 5.39999 40.3 5.5 39.7 6.7L39.3 7.60001C38.1 7.20001 35.3 6.8 30.5 8.5C30.3 8.6 30.2 8.6 30 8.7C30 8.4 30 8.1 30.1 7.8C30.2 7.1 30.3 7 29.7 6.5C25 2.8 23.8 0.500004 18.3 3.3L14.5 5.2C14.5 5.2 13.6 8.8 17.7 8.2C19.6 7.9 19.3 7.69999 21.1 7.89999C24.7 8.49999 24.4 8.40001 25.3 8.60001C26.4 8.80001 25.1 12.2 26.9 12.7C26.7 14.3 26 16.9 23.4 21.4C16.3 33.8 9.8 30.6 9.8 30.6C9.8 30.6 7.1 28.5 5.1 28.6C-3.7 28.7 0.799999 35.7 5.4 35.9C8.3 36 10.8 33.8 10.8 33.8C15 33.6 33.7 29.6 34.7 37.3C35.5 43.2 37.8 55.2 37.7 59L33.3 58L35.7 60L33.1 61.5L37.2 61.2L39.3 63.1C39.7 60.2 39.4 60 39 59.5C39.9 53.1 37.6 45.9 38.2 39.2C39.7 22.3 45.8 59 45.4 66.3L40.9 65.3L43.3 67.2L40.7 68.7L44.8 68.4L46.9 70.3C46.9 70.3 47.6 67.6 46.8 66.9C47.1 66.5 47.2 65.6 47.2 64.4C47.4 59.7 46.2 50 48.4 40.3C51.3 28 68.1 32.6 69 37.5C69.6 40.5 68.6 61.4 67.7 61.3L62.9 60.2L65.3 62.1L62.7 63.6L66.8 63.3L68.9 65.2C68.9 65.2 70 63.1 69 62C71.6 47.1 70.1 49.2 72.5 39.8C74.4 32.1 78.5 29.5 75.3 65.9L71 65L73.4 66.9L70.8 68.4L74.9 68.1L77 70C77 70 77.9 67 76.4 66.2L83.6 32.8C83.6 32.8 85.9 28.2 87.6 23.9C88.9 20.7 89.4 15.2 86.1 10.7C90.1 6.1 93.7 5.2 99.7 4Z" fill="#05BB75"/>
<path fill-rule="evenodd" clip-rule="evenodd" d="M4.5 30.1C3.7 30.1 3.1 29.9 3.1 29.6C3.1 29.3 3.7 29.1 4.5 29.1C5.3 29.1 5.9 29.3 5.9 29.6C5.9 29.9 5.3 30.1 4.5 30.1Z" fill="#FEFEFE"/>
<path fill-rule="evenodd" clip-rule="evenodd" d="M30.6 19.3C30.6 19.3 29.8 19.4 28.9 18.2C28 17.1 28.2 16.3 28.5 15.7C28.8 15.1 29.3 14.1 30.7 14.4C33.5 15 33.1 19 30.6 19.3ZM34.9 19.8C34.5 19.4 34.1 19 34 18.6C33.4 17.3 33.2 16.4 33.8 15.1C34.1 14.4 34.9 14 35.9 14.2C37.9 14.5 38.7 14.8 39.1 17C39.5 19 36.3 21.2 34.9 19.8ZM35.6 26.7C36.7 27.1 37 28 36.1 29.2C35.1 30.7 32.7 32.2 30.3 33C29.8 32.9 29.2 32.8 28.7 32.7C30.9 32.2 34.7 30.7 35.8 29.1C36.5 28 36.4 27.1 35.6 26.7Z" fill="#FEFEFE"/>
<path fill-rule="evenodd" clip-rule="evenodd" d="M31 16.1C30.6 15.7 29 16.7 29.3 16.6L31.3 17C31.3 17 31.4 16.5 31 16.1ZM37.2 16.5C36.2 15.7 34.6 16.8 34.6 16.8C35.3 16.9 37.9 17.5 38 17.4C38 17.4 37.9 17.1 37.2 16.5Z" fill="#05BB75"/>
</svg>
